<?xml version="1.0" encoding="UTF-8" standalone="no"?>
<!-- Created with Inkscape (http://www.inkscape.org/) -->

<svg
   xmlns:dc="http://purl.org/dc/elements/1.1/"
   xmlns:cc="http://creativecommons.org/ns#"
   xmlns:rdf="http://www.w3.org/1999/02/22-rdf-syntax-ns#"
   xmlns:svg="http://www.w3.org/2000/svg"
   xmlns="http://www.w3.org/2000/svg"
   xmlns:sodipodi="http://sodipodi.sourceforge.net/DTD/sodipodi-0.dtd"
   xmlns:inkscape="http://www.inkscape.org/namespaces/inkscape"
   width="169mm"
   height="160mm"
   viewBox="0 0 169 160"
   version="1.1"
   id="svg5586"
   inkscape:version="0.92.3 (2405546, 2018-03-11)"
   sodipodi:docname="fixed-droite.svg">
  <defs
     id="defs5580" />
  <sodipodi:namedview
     id="base"
     pagecolor="#ffffff"
     bordercolor="#666666"
     borderopacity="1.0"
     inkscape:pageopacity="0.0"
     inkscape:pageshadow="2"
     inkscape:zoom="0.35"
     inkscape:cx="1048.2015"
     inkscape:cy="538.05492"
     inkscape:document-units="mm"
     inkscape:current-layer="layer1"
     showgrid="false"
     inkscape:window-width="1600"
     inkscape:window-height="845"
     inkscape:window-x="0"
     inkscape:window-y="0"
     inkscape:window-maximized="1" />
  <metadata
     id="metadata5583">
    <rdf:RDF>
      <cc:Work
         rdf:about="">
        <dc:format>image/svg+xml</dc:format>
        <dc:type
           rdf:resource="http://purl.org/dc/dcmitype/StillImage" />
        <dc:title></dc:title>
      </cc:Work>
    </rdf:RDF>
  </metadata>
  <g
     inkscape:label="Calque 1"
     inkscape:groupmode="layer"
     id="layer1"
     transform="translate(0,-137)">
    <path
       style="opacity:0.7229996;fill:#ffc400;fill-opacity:1;stroke:#ffc400;stroke-width:0.1;stroke-miterlimit:4;stroke-dasharray:none;stroke-opacity:1"
       d="m 136.46723,139.27987 a 16.601882,16.601882 0 0 0 -16.60209,16.60157 16.601882,16.601882 0 0 0 16.60209,16.60209 16.601882,16.601882 0 0 0 16.60157,-16.60209 16.601882,16.601882 0 0 0 -16.60157,-16.60157 z m -12.02717,47.6312 A 67.058616,67.058616 0 0 0 60.00161,235.61921 44.099472,44.099472 0 0 0 44.79376,232.85555 44.099472,44.099472 0 0 0 0.69412,276.95466 44.099472,44.099472 0 0 0 5.53827,296.94984 H 168.95 v -93.02637 a 67.058616,67.058616 0 0 0 -44.50994,-17.0124 z"
       id="rect5588"
       inkscape:connector-curvature="0" />
  </g>
</svg>
